<svg width="64" height="64" viewBox="0 0 64 64" fill="none" xmlns="http://www.w3.org/2000/svg">
<rect width="64" height="64" fill="white"/>
<path d="M14 29.1206H20.9251L27.9704 1H22.001" fill="#000000"/>
<path d="M44.2564 57.3916L43.7539 57.9467L44.2973 59.3137H41.1406L42.2711 57.11L42.7353 56.6671L45.8702 59.3137H39.5759L22.4625 3.73961L27.9704 1L44.2564 55.7047L43.3225 57.7061L44.2564 57.3916Z" fill="#000000"/>
<path d="M50.1738 44.5138L45.8702 59.3137L40.9222 56.0738L46.6294 43.9232" fill="#000000"/>
<path d="M52.3202 32.1801C52.3202 32.1801 49.1826 33.96 46.5092 39.4912C44.6632 43.3108 48.4425 44.2213 48.4425 44.2213C48.4425 44.2213 52.2027 45.4079 52.7543 41.4789C53.7265 34.5397 52.3202 32.1801 52.3202 32.1801Z" fill="#000000"/>
<path d="M52.7953 41.2465C52.7953 41.2465 53.1667 45.2657 52.2437 46.5289C52.2437 46.5289 50.6735 43.5924 49.8625 43.8412L52.7953 41.2465Z" fill="#000000"/>
<path d="M46.5474 39.4037C46.5474 39.4037 43.915 42.28 43.9259 43.8467C43.9259 43.8467 46.785 42.5124 47.2984 43.1878L46.5447 39.4037H46.5474Z" fill="#000000"/>
<path d="M50.649 44.2267L50.2831 45.7578L45.8729 44.574L46.6102 43.0018L47.9538 37.7769C47.9538 37.7769 50.5889 35.5568 51.1733 36.1473L50.649 44.2295V44.2267Z" fill="#000000"/>
</svg>

